<svg xmlns="http://www.w3.org/2000/svg" xmlns:xlink="http://www.w3.org/1999/xlink" width="373.203" height="407.619" viewBox="0 0 373.203 407.619"><defs><clipPath id="a"><path d="M320.934,382.055q-24.778-14.284-49.529.028l-64.881,37.442q-24.75,14.3-24.752,42.9V537.32q0,28.586,24.773,42.879L271.4,617.65q24.765,14.307,49.529,0L385.8,580.2q24.747-14.3,24.76-42.879V462.4q0-28.581-24.76-42.887Z" fill="none"/></clipPath></defs><g transform="translate(-109.565 -296.052)"><path d="M336.545,307.71q-40.388-23.319-80.793.014L149.936,368.793q-40.383,23.364-40.371,69.962v122.2q0,46.659,40.387,69.959l105.8,61.1q40.422,23.315,80.793,0l105.84-61.1q40.357-23.349,40.383-69.978V438.755q0-46.643-40.406-69.962Z" fill="#009c4f"/><path d="M331.545,331.569q-35.4-20.412-70.75.039L168.11,385.093q-35.358,20.421-35.365,61.274V553.383q0,40.828,35.378,61.244l92.672,53.5q35.373,20.458,70.75,0l92.666-53.5q35.359-20.437,35.371-61.272V446.34q0-40.832-35.371-61.247Z" fill="#75bb59"/><path d="M320.934,382.055q-24.778-14.284-49.529.028l-64.881,37.442q-24.75,14.3-24.752,42.9V537.32q0,28.586,24.773,42.879L271.4,617.65q24.765,14.307,49.529,0L385.8,580.2q24.747-14.3,24.76-42.879V462.4q0-28.581-24.76-42.887Z" fill="#c6da82"/><path d="M281.774,627.934c0-7.942,10.767-17.42,14.394-17.42s14.391,9.478,14.391,17.42a14.393,14.393,0,0,1-28.785,0Z" fill="#392c23"/><path d="M178.061,551.443c6.863-3.992,20.471.6,22.277,3.741,1.8,3.16-1.007,17.181-7.879,21.2a14.4,14.4,0,0,1-14.4-24.936Z" fill="#392c23"/><path d="M414.293,448.277c-6.9,3.981-20.486-.616-22.308-3.75-1.807-3.14,1.025-17.188,7.9-21.167a14.392,14.392,0,0,1,14.41,24.917Z" fill="#392c23"/><path d="M399.883,576.379c-6.873-4.014-9.7-18.066-7.883-21.2s15.395-7.733,22.293-3.741a14.4,14.4,0,0,1-14.41,24.936Z" fill="#392c23"/><path d="M192.459,423.36c6.872,3.979,9.682,18.027,7.879,21.167-1.806,3.157-15.414,7.731-22.277,3.75a14.389,14.389,0,1,1,14.4-24.917Z" fill="#392c23"/><g clip-path="url(#a)"><path d="M347.383,453.951l-29.439-17.01V300.182q-21.786-11.057-43.533,0V436.941l-29.487,17.03q-14.112,8.143-14.131,24.486v42.805q0,16.329,14.153,24.508l29.465,17v-65.5a8.835,8.835,0,0,1,4.707-8.165l12.332-7.125a8.821,8.821,0,0,1,9.427,0l12.325,7.125a8.83,8.83,0,0,1,4.742,8.153v65.514l29.439-17q14.139-8.191,14.157-24.508V478.457Q361.54,462.139,347.383,453.951Z" fill="#fff7a7"/></g><path d="M310.559,371.809c0,7.934-10.766,17.385-14.391,17.385s-14.394-9.451-14.394-17.385a14.393,14.393,0,1,1,28.785,0Z" fill="#392c23"/></g></svg>